<svg xmlns="http://www.w3.org/2000/svg" width="56.278" height="86.629" viewBox="0 0 56.278 86.629"><defs><style>.a{fill:#191a1d;}</style></defs><path class="a" d="M178.986,342.973h25.581v12.79H178.986Z" transform="translate(-163.638 -284.483)"/><path class="a" d="M117.125,57.973A28.171,28.171,0,0,0,88.986,86.112v38.371a10.244,10.244,0,0,0,10.232,10.232h35.813a10.244,10.244,0,0,0,10.232-10.232V86.112a28.171,28.171,0,0,0-28.139-28.139ZM101.776,81h30.7v5.116h-5.116v5.116h-5.116V86.112H101.776Zm33.255,43.487H99.218V101.46h35.813Z" transform="translate(-88.986 -48.086)"/><path class="a" d="M327.1,4.978,312.577,0l-2.124,6.194a33.28,33.28,0,0,1,13.5,7.959Z" transform="translate(-272.684)"/><path class="a" d="M116.575,6.194,114.451,0,99.932,4.978l3.146,9.175A33.282,33.282,0,0,1,116.575,6.194Z" transform="translate(-98.065)"/></svg>