<svg xmlns="http://www.w3.org/2000/svg" width="84.851" height="92.718" viewBox="0 0 84.851 92.718"><defs><style>.a{fill:#191919;}</style></defs><path class="a" d="M140.642,207.154a2.728,2.728,0,0,0,3.338-1.936l2.891-10.875,9.512-.917,3.635,11.953a2.728,2.728,0,0,0,5.22-1.587l-3.315-10.9.677-.065a2.728,2.728,0,0,0-.523-5.431l-1.773.171-6.432-21.151a2.731,2.731,0,0,0-5.247.093l-6.053,22.767-4.9.472a2.728,2.728,0,1,0,.523,5.431l2.876-.277-2.37,8.915A2.728,2.728,0,0,0,140.642,207.154Zm10.795-29.988,3.325,10.936-6.4.617Z" transform="translate(-114.563 -134.585)"/><path class="a" d="M295.094,120.574a2.728,2.728,0,0,0,2.728-2.728v-5.86c3.194.185,3.051.179,3.183.179a2.728,2.728,0,0,0,.155-5.452l-3.338-.193v-3.357a2.728,2.728,0,1,0-5.456,0V106.2l-3.022-.175a2.728,2.728,0,1,0-.315,5.447l3.338.193v6.176A2.728,2.728,0,0,0,295.094,120.574Z" transform="translate(-238.313 -82.176)"/><path class="a" d="M93.847,12.848a2.728,2.728,0,0,0-3.974,3.739c12.474,13.26,14.892,37.484,5.391,54C87.056,84.853,71.853,90.23,52.455,85.726c-19.848-4.609-27.58-25.388-24.778-42.6C30.853,23.622,48.423,2.16,87.488,5.868A2.728,2.728,0,0,0,88,.437C49.557-3.213,26.49,16.465,22.292,42.25c-3.527,21.664,7.373,43.786,28.929,48.79,20.307,4.715,38.738-.292,48.772-17.734,10.566-18.367,8.051-45.367-6.146-60.458Z" transform="translate(-21.638 0)"/></svg>